<svg width="1200" height="800" viewBox="0 0 1200 800" xmlns="http://www.w3.org/2000/svg">
  <defs>
    <linearGradient id="wall" x1="0" y1="0" x2="0" y2="1">
      <stop offset="0%" stop-color="#7fd0e2"/>
      <stop offset="100%" stop-color="#3f8ba6"/>
    </linearGradient>
    <linearGradient id="coat" x1="0" y1="0" x2="1" y2="1">
      <stop offset="0%" stop-color="#f7fbff"/>
      <stop offset="100%" stop-color="#dce8f2"/>
    </linearGradient>
  </defs>

  <rect width="1200" height="800" fill="url(#wall)"/>
  <rect x="0" y="620" width="1200" height="180" fill="#1e5a70"/>

  <!-- room shelf -->
  <rect x="120" y="150" width="240" height="16" rx="8" fill="#1f4d63" opacity="0.6"/>
  <rect x="840" y="170" width="260" height="16" rx="8" fill="#1f4d63" opacity="0.6"/>
  <rect x="150" y="170" width="26" height="40" rx="8" fill="#f3f8fd" opacity="0.9"/>
  <rect x="185" y="170" width="26" height="52" rx="8" fill="#bfe7f5" opacity="0.9"/>
  <rect x="225" y="170" width="28" height="44" rx="8" fill="#f3f8fd" opacity="0.9"/>

  <!-- doctor -->
  <ellipse cx="640" cy="260" rx="78" ry="92" fill="#f0c39e"/>
  <path d="M570 225 Q640 130 710 225 Q690 180 640 165 Q590 180 570 225Z" fill="#3e2d22"/>
  <rect x="530" y="350" width="220" height="285" rx="34" fill="url(#coat)"/>
  <rect x="615" y="350" width="50" height="285" rx="20" fill="#e9f2f9"/>
  <rect x="556" y="370" width="66" height="160" rx="26" fill="#77b4cf"/>
  <rect x="658" y="370" width="66" height="160" rx="26" fill="#77b4cf"/>

  <!-- stethoscope -->
  <path d="M590 360 Q580 460 640 500 Q700 460 690 360" fill="none" stroke="#344c5c" stroke-width="10" stroke-linecap="round"/>
  <circle cx="640" cy="514" r="20" fill="#2e4556"/>
  <circle cx="640" cy="514" r="10" fill="#93a9b7"/>
  <circle cx="590" cy="350" r="13" fill="#93a9b7"/>
  <circle cx="690" cy="350" r="13" fill="#93a9b7"/>

  <!-- folder -->
  <rect x="470" y="470" width="185" height="122" rx="12" fill="#d6b27b"/>
  <rect x="490" y="445" width="84" height="32" rx="8" fill="#c69b5d"/>
  <line x1="500" y1="505" x2="625" y2="505" stroke="#b48b53" stroke-width="6"/>
  <line x1="500" y1="535" x2="625" y2="535" stroke="#b48b53" stroke-width="6"/>

  <!-- subtle glow -->
  <ellipse cx="640" cy="680" rx="210" ry="38" fill="#c8eefc" opacity="0.3"/>
</svg>
